<svg xmlns="http://www.w3.org/2000/svg" viewBox="0 0 170 44" width="170" height="44" fill="none">
<path fill="#A5814A" fill-rule="evenodd" d="M17.00,9.00 C20.64,11.34 27.66,18.36 30.00,22.00 C27.66,25.64 20.64,32.66 17.00,35.00 C13.36,32.66 6.34,25.64 4.00,22.00 C6.34,18.36 13.36,11.34 17.00,9.00 Z M17.00,16.02 C18.67,17.10 21.90,20.33 22.98,22.00 C21.90,23.67 18.67,26.90 17.00,27.98 C15.33,26.90 12.10,23.67 11.02,22.00 C12.10,20.33 15.33,17.10 17.00,16.02 Z"/>
<path fill="#A9603E" fill-rule="evenodd" d="M51.00,9.00 C54.64,11.34 61.66,18.36 64.00,22.00 C61.66,25.64 54.64,32.66 51.00,35.00 C47.36,32.66 40.34,25.64 38.00,22.00 C40.34,18.36 47.36,11.34 51.00,9.00 Z"/>
<path fill="#144750" fill-rule="evenodd" d="M85.00,9.00 C88.64,11.34 95.66,18.36 98.00,22.00 C95.66,25.64 88.64,32.66 85.00,35.00 C81.36,32.66 74.34,25.64 72.00,22.00 C74.34,18.36 81.36,11.34 85.00,9.00 Z M85.00,16.02 C86.67,17.10 89.90,20.33 90.98,22.00 C89.90,23.67 86.67,26.90 85.00,27.98 C83.33,26.90 80.10,23.67 79.02,22.00 C80.10,20.33 83.33,17.10 85.00,16.02 Z"/>
<path fill="#A9603E" fill-rule="evenodd" d="M119.00,9.00 C122.64,11.34 129.66,18.36 132.00,22.00 C129.66,25.64 122.64,32.66 119.00,35.00 C115.36,32.66 108.34,25.64 106.00,22.00 C108.34,18.36 115.36,11.34 119.00,9.00 Z"/>
<path fill="#A5814A" fill-rule="evenodd" d="M153.00,9.00 C156.64,11.34 163.66,18.36 166.00,22.00 C163.66,25.64 156.64,32.66 153.00,35.00 C149.36,32.66 142.34,25.64 140.00,22.00 C142.34,18.36 149.36,11.34 153.00,9.00 Z M153.00,16.02 C154.67,17.10 157.90,20.33 158.98,22.00 C157.90,23.67 154.67,26.90 153.00,27.98 C151.33,26.90 148.10,23.67 147.02,22.00 C148.10,20.33 151.33,17.10 153.00,16.02 Z"/>
</svg>